<svg xmlns="http://www.w3.org/2000/svg" width="32" height="33" viewBox="0 0 32 33" fill="none">
          <g clip-path="url(#clip0_160_66)">
          <path d="M26.7184 23.2443C30.1204 20.2083 32.0004 16.7683 32.0004 16.7683C32.0004 16.7683 26.0004 5.76831 16.0004 5.76831C14.0796 5.77492 12.1805 6.17516 10.4204 6.94431L11.9604 8.48631C13.2553 8.01462 14.6223 7.77167 16.0004 7.76831C20.2404 7.76831 23.7584 10.1043 26.3364 12.6823C27.5771 13.9297 28.6894 15.2986 29.6564 16.7683C29.5404 16.9423 29.4124 17.1343 29.2664 17.3443C28.5964 18.3043 27.6064 19.5843 26.3364 20.8543C26.0064 21.1843 25.6624 21.5103 25.3024 21.8263L26.7184 23.2443Z" fill="#AEAEAE"/>
          <path d="M22.594 19.1203C23.0403 17.872 23.1229 16.5226 22.8323 15.2291C22.5417 13.9357 21.8898 12.7513 20.9523 11.8139C20.0149 10.8765 18.8306 10.2246 17.5371 9.93395C16.2437 9.64332 14.8943 9.72598 13.646 10.1723L15.292 11.8183C16.0606 11.7083 16.8443 11.7788 17.5809 12.0242C18.3176 12.2696 18.9869 12.6833 19.536 13.2323C20.085 13.7813 20.4986 14.4507 20.7441 15.1873C20.9895 15.924 21.06 16.7077 20.95 17.4763L22.594 19.1203ZM16.708 21.7183L18.352 23.3623C17.1037 23.8086 15.7543 23.8912 14.4608 23.6006C13.1674 23.31 11.983 22.6581 11.0456 21.7206C10.1082 20.7832 9.45626 19.5989 9.16564 18.3054C8.87501 17.012 8.95767 15.6626 9.40398 14.4143L11.05 16.0603C10.94 16.8289 11.0105 17.6126 11.2559 18.3492C11.5013 19.0859 11.915 19.7552 12.464 20.3043C13.013 20.8533 13.6824 21.2669 14.419 21.5124C15.1557 21.7578 15.9394 21.8283 16.708 21.7183Z" fill="#AEAEAE"/>
          <path d="M6.7 11.7083C6.34 12.0283 5.994 12.3523 5.664 12.6823C4.42329 13.9297 3.31104 15.2986 2.344 16.7683L2.734 17.3443C3.404 18.3043 4.394 19.5843 5.664 20.8543C8.242 23.4323 11.762 25.7683 16 25.7683C17.432 25.7683 18.78 25.5023 20.04 25.0483L21.58 26.5923C19.8199 27.3614 17.9208 27.7616 16 27.7683C6 27.7683 0 16.7683 0 16.7683C0 16.7683 1.878 13.3263 5.282 10.2923L6.698 11.7103L6.7 11.7083ZM27.292 29.4763L3.292 5.4763L4.708 4.0603L28.708 28.0603L27.292 29.4763Z" fill="#AEAEAE"/>
          </g>
          <defs>
          <clipPath id="clip0_160_66">
          <rect width="32" height="32" fill="white" transform="translate(0 0.768311)"/>
          </clipPath>
          </defs>
          </svg>