<svg width="25" height="15" viewBox="0 0 25 15" fill="none" xmlns="http://www.w3.org/2000/svg">
<path d="M8.33333 13.75C8.33333 13.4738 8.44308 13.2088 8.63843 13.0135C8.83378 12.8181 9.09873 12.7084 9.375 12.7084H15.625C15.9013 12.7084 16.1662 12.8181 16.3616 13.0135C16.5569 13.2088 16.6667 13.4738 16.6667 13.75C16.6667 14.0263 16.5569 14.2913 16.3616 14.4866C16.1662 14.682 15.9013 14.7917 15.625 14.7917H9.375C9.09873 14.7917 8.83378 14.682 8.63843 14.4866C8.44308 14.2913 8.33333 14.0263 8.33333 13.75ZM4.16667 7.50004C4.16667 7.22377 4.27641 6.95882 4.47176 6.76347C4.66711 6.56812 4.93207 6.45837 5.20833 6.45837H19.7917C20.0679 6.45837 20.3329 6.56812 20.5282 6.76347C20.7236 6.95882 20.8333 7.22377 20.8333 7.50004C20.8333 7.77631 20.7236 8.04126 20.5282 8.23661C20.3329 8.43196 20.0679 8.54171 19.7917 8.54171H5.20833C4.93207 8.54171 4.66711 8.43196 4.47176 8.23661C4.27641 8.04126 4.16667 7.77631 4.16667 7.50004ZM0 1.25004C0 0.973773 0.109747 0.708822 0.305097 0.513471C0.500448 0.318121 0.765399 0.208374 1.04167 0.208374H23.9583C24.2346 0.208374 24.4996 0.318121 24.6949 0.513471C24.8903 0.708822 25 0.973773 25 1.25004C25 1.52631 24.8903 1.79126 24.6949 1.98661C24.4996 2.18196 24.2346 2.29171 23.9583 2.29171H1.04167C0.765399 2.29171 0.500448 2.18196 0.305097 1.98661C0.109747 1.79126 0 1.52631 0 1.25004Z" fill="#F17121"/>
</svg>
