<svg width="17" height="17" viewBox="0 0 17 17" fill="none" xmlns="http://www.w3.org/2000/svg">
<path d="M9.51647 0.921034C9.24688 0.651451 8.88125 0.5 8.5 0.5C8.11875 0.5 7.75312 0.651451 7.48353 0.921034C7.21395 1.19062 7.0625 1.55625 7.0625 1.9375V7.0625H1.9375C1.55625 7.0625 1.19062 7.21395 0.921034 7.48353C0.651451 7.75312 0.5 8.11875 0.5 8.5C0.5 8.88125 0.651451 9.24688 0.921034 9.51647C1.19062 9.78605 1.55625 9.9375 1.9375 9.9375H7.0625V15.0625C7.0625 15.4437 7.21395 15.8094 7.48353 16.079C7.75312 16.3486 8.11875 16.5 8.5 16.5C8.88125 16.5 9.24688 16.3486 9.51647 16.079C9.78605 15.8094 9.9375 15.4437 9.9375 15.0625V9.9375H15.0625C15.4437 9.9375 15.8094 9.78605 16.079 9.51647C16.3486 9.24688 16.5 8.88125 16.5 8.5C16.5 8.11875 16.3486 7.75312 16.079 7.48353C15.8094 7.21395 15.4437 7.0625 15.0625 7.0625H9.9375V1.9375C9.9375 1.55625 9.78605 1.19062 9.51647 0.921034Z" fill="#F7F7F7" stroke="#F7F7F7"/>
</svg>
