<svg width="34" height="34" viewBox="0 0 34 34" fill="none" xmlns="http://www.w3.org/2000/svg">
<path d="M27.6036 28.5514L18.7324 19.6803C18.0241 20.2838 17.2095 20.7508 16.2887 21.0814C15.3679 21.4119 14.4423 21.5772 13.512 21.5772C11.2435 21.5772 9.32342 20.7919 7.75186 19.2213C6.18031 17.6497 5.39453 15.7301 5.39453 13.4625C5.39453 11.1949 6.17936 9.27438 7.74903 7.70094C9.31964 6.12655 11.2388 5.33936 13.5064 5.33936C15.7749 5.33936 17.6959 6.12513 19.2694 7.69669C20.8428 9.26824 21.6295 11.1888 21.6295 13.4583C21.6295 14.4424 21.4553 15.3949 21.1068 16.3157C20.7573 17.2365 20.2993 18.0242 19.7326 18.6787L28.6038 27.5484L27.6022 28.5514H27.6036ZM13.512 20.1591C15.3915 20.1591 16.9786 19.5122 18.2734 18.2183C19.5673 16.9244 20.2143 15.3372 20.2143 13.4569C20.2143 11.5774 19.5673 9.99074 18.2734 8.69686C16.9796 7.40297 15.3929 6.75602 13.5134 6.75602C11.634 6.75602 10.0469 7.40297 8.75203 8.69686C7.45814 9.99074 6.8112 11.5774 6.8112 13.4569C6.8112 15.3363 7.45814 16.923 8.75203 18.2169C10.0459 19.5107 11.6326 20.1591 13.512 20.1591Z" fill="#C4C4C4"/>
</svg>
