<svg width="144" height="145" viewBox="0 0 144 145" fill="none" xmlns="http://www.w3.org/2000/svg">
<path d="M144 72.2681C144 91.3637 136.414 109.677 122.912 123.18C109.409 136.682 91.0956 144.268 72 144.268C52.9044 144.268 34.5909 136.682 21.0883 123.18C7.58569 109.677 0 91.3637 0 72.2681C0 53.1725 7.58569 34.859 21.0883 21.3564C34.5909 7.85376 52.9044 0.268066 72 0.268066C91.0956 0.268066 109.409 7.85376 122.912 21.3564C136.414 34.859 144 53.1725 144 72.2681ZM108.27 44.9981C107.627 44.3574 106.862 43.853 106.019 43.515C105.177 43.177 104.275 43.0123 103.368 43.0308C102.461 43.0493 101.566 43.2505 100.738 43.6226C99.9105 43.9946 99.1663 44.5298 98.55 45.1961L67.293 85.0211L48.456 66.1751C47.1764 64.9827 45.484 64.3336 43.7353 64.3645C41.9866 64.3953 40.3181 65.1038 39.0814 66.3405C37.8447 67.5772 37.1363 69.2457 37.1054 70.9944C37.0746 72.7431 37.7237 74.4355 38.916 75.7151L62.73 99.5381C63.3715 100.178 64.1355 100.683 64.9763 101.022C65.817 101.36 66.7174 101.526 67.6237 101.51C68.53 101.493 69.4236 101.294 70.2513 100.924C71.0789 100.554 71.8236 100.022 72.441 99.3581L108.369 54.4481C109.594 53.1746 110.27 51.4715 110.254 49.7047C110.237 47.9378 109.528 46.248 108.279 44.9981H108.27Z" fill="#F17121"/>
</svg>
