<svg xmlns="http://www.w3.org/2000/svg" width="24" height="25" viewBox="0 0 24 25" fill="none">
<path d="M16 12.7834C16 14.9926 14.2091 16.7834 12 16.7834C9.79086 16.7834 8 14.9926 8 12.7834C8 10.5743 9.79086 8.78345 12 8.78345C14.2091 8.78345 16 10.5743 16 12.7834ZM14 12.7834C14 11.6789 13.1046 10.7834 12 10.7834C10.8954 10.7834 10 11.6789 10 12.7834C10 13.888 10.8954 14.7834 12 14.7834C13.1046 14.7834 14 13.888 14 12.7834Z" fill="#8E8E8E"/>
<path d="M1 12.7834L7.29129 6.71498C9.96124 4.1396 14.0388 4.1396 16.7087 6.71499L23 12.7834L16.7087 18.8519C14.0388 21.4273 9.96124 21.4273 7.29129 18.8519L1 12.7834ZM8.67978 17.4124C10.5749 19.2405 13.4251 19.2405 15.3202 17.4124L20.1192 12.7834L15.3202 8.15446C13.4251 6.32644 10.5749 6.32644 8.67978 8.15446L3.88082 12.7834L8.67978 17.4124Z" fill="#8E8E8E"/>
</svg>